<?xml version="1.0" encoding="UTF-8" standalone="no"?>
<svg width="60px" height="60px" viewBox="0 0 60 60" version="1.1" xmlns="http://www.w3.org/2000/svg" xmlns:xlink="http://www.w3.org/1999/xlink">
    <!-- Generator: Sketch 47.1 (45422) - http://www.bohemiancoding.com/sketch -->
    <title>behance</title>
    <desc>Created with Sketch.</desc>
    <defs></defs>
    <g id="Page-1" stroke="none" stroke-width="1" fill="none" fill-rule="evenodd">
        <g id="behance" transform="translate(-4.000000, -5.000000)">
            <g id="background">
                <rect id="canvas_background" x="0" y="0" width="582" height="402"></rect>
            </g>
            <g id="Layer-1" transform="translate(4.000000, 5.000000)" fill="#FA6520">
                <polygon id="svg_1" points="0 -7.10542736e-15 60 -7.10542736e-15 60 60 0 60"></polygon>
            </g>
            <g id="if_02-dribbble_104497" transform="translate(19.000000, 24.000000)" fill-rule="nonzero" fill="#FFFFFF">
                <g id="if_Behance_alt_367573">
                    <path d="M28.2982357,3.25397248 L20.4773217,3.25397248 L20.4773217,1.31633142 L28.2982357,1.31633142 L28.2982357,3.25397248 L28.2982357,3.25397248 Z M15.2831952,10.7800567 C15.8696144,11.657155 16.1561024,12.7039432 16.1561024,13.932124 C16.1561024,14.9276177 15.9687201,15.7846542 15.5949264,16.5059692 C15.216577,17.2347313 14.7021533,17.827696 14.068011,18.2831914 C13.4293129,18.7434742 12.6951687,19.0815621 11.8736441,19.3007987 C11.0601854,19.5207192 10.2161809,19.6315154 9.35223582,19.6315154 L0,19.6315154 L0,0 L9.09644294,0 C10.0197619,0 10.8521156,0.0816152835 11.6132955,0.249329372 C12.3708905,0.412407955 13.0167582,0.684686875 13.562624,1.05864294 C14.0995276,1.432599 14.5202229,1.92943394 14.8219465,2.55727888 C15.1156789,3.17235719 15.2634039,3.94587858 15.2634039,4.85983297 C15.2634039,5.84787945 15.0427125,6.67269536 14.6021513,7.33374876 C14.1580799,7.99183847 13.5050426,8.53252073 12.6330316,8.95328779 C13.8211802,9.29981078 14.7004355,9.91116549 15.2831952,10.7800567 Z M4.24825297,7.93127294 L8.54699236,7.93127294 C9.30003167,7.93127294 9.92341945,7.75071622 10.417081,7.38040777 C10.9053654,7.01830644 11.1422632,6.41804655 11.1422632,5.59581437 C11.1422632,5.13841922 11.0638449,4.76081554 10.9053654,4.46839878 C10.7414339,4.176058 10.5243273,3.94595457 10.2504609,3.7856117 C9.9784616,3.61873352 9.6721823,3.50322586 9.31541658,3.4409885 C8.96582053,3.37130394 8.59837499,3.34470679 8.22271421,3.34470679 L4.24832766,3.34470679 L4.24832766,7.93127294 L4.24825297,7.93127294 Z M11.9186786,13.6919897 C11.9186786,12.6801578 11.6385387,11.9623384 11.0818438,11.526145 C10.5242527,11.0962589 9.78107165,10.8827217 8.86671479,10.8827217 L4.24825297,10.8827217 L4.24825297,16.2887084 L8.78209776,16.2887084 C9.20100061,16.2887084 9.5991413,16.2511684 9.97300967,16.1650696 C10.3530768,16.0807186 10.6899766,15.9468209 10.973776,15.7478741 C11.2584716,15.5591103 11.4935023,15.2970143 11.6646781,14.9651577 C11.8357793,14.6361129 11.9186786,14.2088865 11.9186786,13.6919897 Z M31.3428805,13.4637861 L21.262027,13.4637861 C21.262027,14.58763 21.6349245,15.6527323 22.2123069,16.2225954 C22.7862539,16.7937504 23.6176367,17.0816077 24.6932365,17.0816077 C25.4679341,17.0816077 26.1362817,16.8826609 26.6975324,16.4848434 C27.2532564,16.0890017 27.592098,15.6653469 27.7227204,15.2255059 L31.101651,15.2255059 C30.5585485,16.9368431 29.7350822,18.1576528 28.6107884,18.8937102 C27.4992657,19.6314394 26.144497,20 24.5653027,20 C23.4645344,20 22.4745226,19.8195193 21.5854837,19.4609896 C20.6962953,19.0998761 19.9540852,18.5929343 19.3297265,17.9339327 C18.7209021,17.2693836 18.247928,16.4848434 17.9110283,15.5645057 C17.5777133,14.6470557 17.4093008,13.6342359 17.4093008,12.5353172 C17.4093008,11.4721148 17.5839868,10.4792808 17.9254423,9.56000699 C18.2730965,8.63982127 18.7550327,7.84517414 19.3884282,7.1778894 C20.0224958,6.50870487 20.7756098,5.97980136 21.6521018,5.59399056 C22.5286686,5.20810377 23.4952296,5.01470443 24.5653774,5.01470443 C25.7471778,5.01470443 26.7822988,5.24647968 27.6695453,5.71770535 C28.5541032,6.18239572 29.2793601,6.81305237 29.8486766,7.60222808 C30.4179932,8.389504 30.8233782,9.28970386 31.0764078,10.299788 C31.3276449,11.3071364 31.4150253,12.3610678 31.3428805,13.4637861 Z M27.5055391,11.0027889 C27.4136031,10.009271 27.0784957,9.27237771 26.6209065,8.75525294 C26.1650351,8.24109185 25.3921298,7.96341751 24.4499158,7.96341751 C23.8363863,7.96341751 23.3292816,8.06790635 22.923075,8.28227945 C22.5259052,8.49315693 22.2005815,8.75608885 21.952033,9.06514784 C21.7042313,9.37960226 21.5349226,9.71221874 21.436713,10.0668729 C21.3385782,10.4125599 21.2800259,10.7268624 21.262027,11.0027889 L27.5055391,11.0027889 Z" id="Shape"></path>
                </g>
            </g>
        </g>
    </g>
</svg>