<?xml version="1.0" encoding="UTF-8" standalone="no"?>
<svg width="60px" height="60px" viewBox="0 0 60 60" version="1.1" xmlns="http://www.w3.org/2000/svg" xmlns:xlink="http://www.w3.org/1999/xlink">
    <!-- Generator: Sketch 47.1 (45422) - http://www.bohemiancoding.com/sketch -->
    <title>dribbble</title>
    <desc>Created with Sketch.</desc>
    <defs></defs>
    <g id="Page-1" stroke="none" stroke-width="1" fill="none" fill-rule="evenodd">
        <g id="dribbble" transform="translate(-4.000000, -5.000000)">
            <g id="background">
                <rect id="canvas_background" x="0" y="0" width="582" height="402"></rect>
            </g>
            <g id="Layer-1" transform="translate(4.000000, 5.000000)" fill="#FA6520">
                <polygon id="svg_1" points="0 -7.10542736e-15 60 -7.10542736e-15 60 60 0 60"></polygon>
            </g>
            <g id="if_02-dribbble_104497" transform="translate(15.000000, 16.000000)" fill-rule="nonzero" fill="#FFFFFF">
                <path d="M36.6250422,14.7750046 C36.3825567,13.5865982 36.01808,12.4161526 35.5465804,11.2980927 C35.0833133,10.2002387 34.5085328,9.14354483 33.8409493,8.15570073 C33.1786046,7.17608867 32.4189663,6.25559758 31.5822416,5.41967193 C30.7462653,4.58224955 29.82497,3.82190894 28.846047,3.16110111 C27.8581431,2.49131288 26.7998884,1.91881232 25.7034647,1.45407658 C24.585337,0.983353897 23.4155689,0.618150927 22.2263421,0.377176837 C21.0086756,0.127222346 19.754337,0 18.5014952,0 C17.2471565,0 15.9943147,0.127222346 14.7751514,0.377176837 C13.586673,0.618150927 12.4161565,0.984102263 11.2987773,1.45407658 C10.2023535,1.91881232 9.14409886,2.49206124 8.15469808,3.16110111 C7.17502666,3.82190894 6.2544798,4.58150118 5.4185035,5.41967193 C4.58177879,6.25559758 3.82288893,7.17683704 3.16129265,8.15570073 C2.49296066,9.14354483 1.91892859,10.2002387 1.45566151,11.2980927 C0.981916656,12.4161526 0.618936795,13.5865982 0.375702867,14.7750046 C0.126481642,15.9911005 0,17.2453632 0,18.4988774 C0,19.7546368 0.126481642,21.0088995 0.375702867,22.2257438 C0.618936795,23.4141502 0.982665068,24.5845958 1.45491309,25.7019073 C1.91818017,26.7982646 2.49296066,27.8579519 3.16054424,28.845796 C3.82214052,29.8254081 4.58103037,30.7444024 5.41775509,31.5818248 C6.25373139,32.4177505 7.17502666,33.1765943 8.15394967,33.8388989 C9.14335045,34.5071904 10.2016051,35.0811877 11.2980288,35.5444267 C12.4146597,36.0181428 13.5859246,36.3788556 14.774403,36.6228232 C15.9935663,36.8742744 17.2464081,37 18.5007468,37 C19.7535886,37 21.0079272,36.8742744 22.2255937,36.6228232 C23.4155689,36.3788556 24.5845886,36.0173945 25.7027162,35.5444267 C26.79914,35.0811877 27.8573946,34.506442 28.8452986,33.8388989 C29.82497,33.1765943 30.7455169,32.4184988 31.5814932,31.5818248 C32.4174695,30.7444024 33.1778562,29.8246597 33.8402009,28.845796 C34.5085328,27.8579519 35.0825649,26.7982646 35.545832,25.7019073 C36.01808,24.5853441 36.3818083,23.4141502 36.6242938,22.2257438 C36.8742634,21.0081511 36.9999967,19.7538885 36.9999967,18.4988774 C37.0007451,17.2453632 36.8750119,15.9911005 36.6250422,14.7750046 Z M34.294487,18.3424688 C34.0662213,18.2930766 28.7195654,17.1420885 23.2905841,17.824599 C23.1798191,17.5544386 23.0668089,17.2820331 22.9500566,17.0088793 C22.6215037,16.2358164 22.2675048,15.4694889 21.899286,14.7173803 C28.139546,12.1714367 30.6729209,8.50818147 30.702109,8.4647762 C32.9181572,11.1544063 34.2585632,14.5924031 34.294487,18.3424688 Z M28.9358565,6.64250319 C28.8961906,6.70386926 26.6464639,10.1283955 20.6831164,12.3637669 C17.9820972,7.40134706 15.0146433,3.45969944 14.7773966,3.14688214 C15.9718623,2.85726421 17.21722,2.70085557 18.5007468,2.70085557 C22.5017578,2.70085557 26.1517635,4.19160211 28.9358565,6.64250319 Z M14.7160268,3.15960438 C14.7160268,3.16110111 14.7130332,3.16259784 14.7130332,3.16259784 C14.7130332,3.16259784 14.6958197,3.16708804 14.6666316,3.17307498 C14.6823483,3.16858478 14.7003102,3.16559131 14.7160268,3.15960438 Z M11.7590507,4.21031128 C11.9693545,4.49244554 14.8919037,8.4535507 17.6266014,13.3134443 C10.0399481,15.3287959 3.45616701,15.2502174 3.03855307,15.2427338 C4.06537445,10.3491636 7.35314874,6.29151918 11.7590507,4.21031128 Z M2.70101922,18.4988774 C2.70101922,18.3304949 2.70850334,18.1658543 2.71449063,17.9997168 C2.99289993,18.0057038 10.8003348,18.1830667 18.9348258,15.7486297 C19.3876151,16.6346959 19.8209457,17.5349811 20.2168557,18.4345179 C20.0080487,18.4928905 19.7999901,18.5557533 19.5941768,18.6231063 C11.0675179,21.3785927 6.74244448,29.0508485 6.74244448,29.0508485 C6.74244448,29.0508485 6.74843177,29.0553387 6.74843177,29.0583322 C4.23301876,26.2586922 2.70101922,22.5580186 2.70101922,18.4988774 Z M18.5007468,34.2991444 C14.6771094,34.2991444 11.1700504,32.9401104 8.43684944,30.6785461 C8.64415959,30.8469287 8.79084836,30.9546935 8.79084836,30.9546935 C8.79084836,30.9546935 11.8196721,24.3496086 21.189043,21.0852329 C21.2242183,21.0717623 21.2593937,21.0620335 21.2945691,21.0515564 C23.5181014,26.8281993 24.4356546,31.6663902 24.6699076,33.0471269 C22.7734313,33.8538662 20.6891037,34.2991444 18.5007468,34.2991444 Z M27.3297641,31.6042758 C27.1688555,30.6501082 26.3268919,26.0132279 24.2545389,20.3189054 C29.3542188,19.5031856 33.775089,20.9018831 34.1006483,21.0088995 C33.3971409,25.4107927 30.8772374,29.2080055 27.3297641,31.6042758 Z" id="Shape"></path>
            </g>
        </g>
    </g>
</svg>