<?xml version="1.0" encoding="UTF-8" standalone="no"?>
<svg width="60px" height="60px" viewBox="0 0 60 60" version="1.1" xmlns="http://www.w3.org/2000/svg" xmlns:xlink="http://www.w3.org/1999/xlink">
    <!-- Generator: Sketch 47.1 (45422) - http://www.bohemiancoding.com/sketch -->
    <title>git </title>
    <desc>Created with Sketch.</desc>
    <defs></defs>
    <g id="Page-1" stroke="none" stroke-width="1" fill="none" fill-rule="evenodd">
        <g id="git-" transform="translate(-4.000000, -5.000000)">
            <g id="background">
                <rect id="canvas_background" x="0" y="0" width="582" height="402"></rect>
            </g>
            <g id="Layer-1" transform="translate(4.000000, 5.000000)" fill="#FA6520">
                <polygon id="svg_1" points="0 -7.10542736e-15 60 -7.10542736e-15 60 60 0 60"></polygon>
            </g>
            <g id="Layer-1" transform="translate(22.000000, 21.000000)" fill="#FFFFFF">
                <path d="M17.248915,28 L13.3950099,28 L9.53724706,28 C9.53724706,28 9.54785591,25.7861333 9.53724706,24.2666667 C4.25886303,25.3661333 2.78616206,21.4666667 2.78616206,21.4666667 C1.82172135,19.6 0.857280634,18.6666667 0.857280634,18.6666667 C-1.07160079,17.5578667 0.857280634,17.7333333 0.857280634,17.7333333 C2.78616206,17.7333333 3.75060278,19.6 3.75060278,19.6 C5.44319623,22.3822667 8.45514458,21.9342667 9.53724706,21.4666667 C9.53724706,20.5333333 9.95967209,19.1221333 10.5016878,18.6666667 C6.28901073,18.2074667 2.7823043,15.8666667 2.7823043,11.2 C2.7823043,6.53333333 3.75060278,5.6 4.71504349,4.66666667 C4.52022646,4.20653333 3.71298959,2.506 4.74494115,0 C4.74494115,0 6.64006715,0 8.56894858,2.8 C9.52470933,1.87506667 12.4267114,1.86666667 13.3921166,1.86666667 C14.3555929,1.86666667 17.257595,1.87506667 18.2133557,2.8 C20.1422371,0 22.0412209,0 22.0412209,0 C23.0731725,2.506 22.2659356,4.20653333 22.0711186,4.66666667 C23.0355593,5.6 24,6.53333333 24,11.2 C24,15.8666667 20.4971513,18.2074667 16.2844743,18.6666667 C16.82649,19.1221333 17.248915,20.7293333 17.248915,21.4666667 L17.248915,28 Z" id="Cat"></path>
            </g>
        </g>
    </g>
</svg>