<?xml version="1.0" encoding="UTF-8" standalone="no"?>
<svg width="60px" height="60px" viewBox="0 0 60 60" version="1.1" xmlns="http://www.w3.org/2000/svg" xmlns:xlink="http://www.w3.org/1999/xlink">
    <!-- Generator: Sketch 47.1 (45422) - http://www.bohemiancoding.com/sketch -->
    <title>instagram</title>
    <desc>Created with Sketch.</desc>
    <defs></defs>
    <g id="Page-1" stroke="none" stroke-width="1" fill="none" fill-rule="evenodd">
        <g id="instagram" transform="translate(-4.000000, -5.000000)">
            <g id="background"></g>
            <g id="Layer-1" transform="translate(4.000000, 5.000000)" fill="#FA6520">
                <path d="M39.233059,21.9271053 L39.233059,21.9216039 C39.6933445,21.9216039 40.154547,21.9307729 40.6157495,21.9197701 C41.2080692,21.9050996 41.6903604,21.3971351 41.6903604,20.8038985 C41.6903604,19.9209204 41.6903604,19.0370254 41.6903604,18.1540473 C41.6903604,17.520467 41.1888142,17.0170869 40.5570677,17.01617 C39.6759234,17.01617 38.7947791,17.0152531 37.9136348,17.01617 C37.2828052,17.0170869 36.780342,17.5223008 36.780342,18.1558811 C36.7794251,19.031524 36.7766744,19.9071668 36.7830927,20.7828097 C36.7840096,20.9139269 36.808766,21.0496286 36.8500267,21.1734106 C37.008651,21.6391976 37.4359281,21.9252715 37.9585631,21.9280222 C38.3830894,21.9280222 38.8085326,21.9271053 39.233059,21.9271053 L39.233059,21.9271053 Z M30.7324464,23.0631488 C27.6296448,23.061315 25.1072432,25.5580433 25.0641488,28.6461743 C25.0192205,31.8186605 27.5581264,34.3318931 30.6022461,34.3969933 C33.7692309,34.4648441 36.3310593,31.9341904 36.3979933,28.8561453 C36.466761,25.6836591 33.9067664,23.061315 30.7324464,23.0631488 L30.7324464,23.0631488 Z M19.7717816,26.0880135 L19.7717816,26.1631996 C19.7717816,30.303019 19.7708647,34.4428384 19.7717816,38.5826579 C19.7717816,39.1777282 20.2870814,39.6902773 20.8830687,39.6902773 C27.4480979,39.6911942 34.0122103,39.6911942 40.5772395,39.6902773 C41.1787282,39.6902773 41.6912773,39.1795621 41.6912773,38.5789902 C41.6921942,34.4446722 41.6912773,30.3085204 41.6912773,26.1751193 L41.6912773,26.0889304 L39.0212542,26.0889304 C39.3981016,27.2937416 39.5136314,28.5196417 39.36601,29.7693812 C39.2183885,31.0191207 38.814951,32.1817543 38.1593649,33.2563653 C37.5037789,34.3309762 36.6519755,35.2231233 35.61129,35.9318898 C32.9119261,37.7711982 29.3570911,37.9325733 26.4917676,36.3243245 C25.0439769,35.5128649 23.9070165,34.380489 23.1129781,32.9198617 C21.9310894,30.7440496 21.7422073,28.459126 22.4353864,26.0880135 C21.5478238,26.0880135 20.6657626,26.0880135 19.7717816,26.0880135 L19.7717816,26.0880135 Z M41.9232539,42.7197266 C42.0690416,42.6958871 42.2148292,42.6747983 42.3587831,42.6436236 C43.5012449,42.4006441 44.4346527,41.4479814 44.6583771,40.2991013 C44.6812997,40.1734855 44.6996378,40.0487866 44.7198097,39.9240877 L44.7198097,17.5406388 C44.7005547,17.4186907 44.6831335,17.2949087 44.6602109,17.1729605 C44.4144808,15.9195534 43.3802136,14.9467188 42.1112191,14.7725071 C42.0580387,14.7660888 42.007609,14.754169 41.9553455,14.745 L19.5104641,14.745 C19.3756793,14.7697564 19.2390607,14.7880945 19.1061097,14.8183523 C17.8664561,15.1007586 16.9495526,16.0983496 16.7725902,17.3545074 C16.765255,17.4067709 16.7542521,17.4590344 16.746,17.5112979 L16.746,39.9552624 C16.7716733,40.0964656 16.7918452,40.2404194 16.8239368,40.3816226 C17.098091,41.593769 18.1323581,42.5335951 19.3637596,42.6922195 C19.4224414,42.6995547 19.482957,42.7114744 19.5425558,42.7197266 L41.9232539,42.7197266 L41.9232539,42.7197266 Z M0,-7.10542736e-15 L60,-7.10542736e-15 L60,60 L0,60 L0,-7.10542736e-15 Z" id="svg_1"></path>
            </g>
        </g>
    </g>
</svg>